<?xml version="1.0" encoding="UTF-8" standalone="no"?>
<!-- Created with Inkscape (http://www.inkscape.org/) -->

<svg
   version="1.1"
   id="svg2"
   width="550.66669"
   height="653.33331"
   viewBox="0 0 550.66669 653.33331"
   sodipodi:docname="tpvvector.svg"
   inkscape:version="1.2 (dc2aedaf03, 2022-05-15)"
   xmlns:inkscape="http://www.inkscape.org/namespaces/inkscape"
   xmlns:sodipodi="http://sodipodi.sourceforge.net/DTD/sodipodi-0.dtd"
   xmlns="http://www.w3.org/2000/svg"
   xmlns:svg="http://www.w3.org/2000/svg">
  <defs
     id="defs6" />
  <sodipodi:namedview
     id="namedview4"
     pagecolor="#ffffff"
     bordercolor="#000000"
     borderopacity="0.25"
     inkscape:showpageshadow="2"
     inkscape:pageopacity="0.0"
     inkscape:pagecheckerboard="0"
     inkscape:deskcolor="#d1d1d1"
     showgrid="false"
     inkscape:zoom="1.1115286"
     inkscape:cx="483.11847"
     inkscape:cy="411.14552"
     inkscape:window-width="2560"
     inkscape:window-height="1377"
     inkscape:window-x="-8"
     inkscape:window-y="-8"
     inkscape:window-maximized="1"
     inkscape:current-layer="g10">
    <inkscape:page
       x="0"
       y="0"
       id="page8"
       width="550.66669"
       height="653.33331" />
  </sodipodi:namedview>
  <g
     id="g10"
     inkscape:groupmode="layer"
     inkscape:label="Page 1"
     transform="matrix(1.3333333,0,0,-1.3333333,0,653.33333)">
    <g
       id="g12"
       transform="scale(0.1)">
      <path
         d="m 3234.22,2800.1 c -91.94,36.29 -204.09,64.33 -324.29,85.91 -176.56,31.7 -370.35,49.33 -543.61,58.65 -40.12,2.15 -92.79,-64.04 -141.52,-125.31 -53.67,-67.49 -103.75,-130.42 -164.3,-130.6 h -1.32 c -60.53,0.18 -110.62,63.11 -164.29,130.6 -48.73,61.27 -101.4,127.46 -141.52,125.31 -173.26,-9.32 -367.05,-26.95 -543.61,-58.65 -120.2,-21.58 -232.354,-49.62 -324.291,-85.91 v -612.81 c 55.289,-42.38 134.661,-31.94 226.591,-1.31 55.31,18.43 117.24,44.77 181.3,72 258.23,109.76 549.38,233.47 766.48,3.87 217.11,229.6 508.26,105.89 766.49,-3.87 64.06,-27.23 125.99,-53.57 181.3,-72 91.93,-30.63 171.3,-41.07 226.59,1.31 v 612.81"
         style="fill:#f7dcca;fill-opacity:1;fill-rule:nonzero;stroke:none"
         id="path14" />
      <path
         d="m 3234.22,2800.1 c -91.94,36.29 -204.09,64.33 -324.29,85.91 0,0 298.4,-152.35 187.88,-723.18 53.64,-8.4 100.2,-3.3 136.41,24.46 z m -2024.46,85.91 c -120.2,-21.58 -232.354,-49.62 -324.291,-85.91 v -612.81 c 36.215,-27.76 82.765,-32.86 136.411,-24.46 -110.521,570.83 187.88,723.18 187.88,723.18"
         style="fill:#e6ab96;fill-opacity:1;fill-rule:nonzero;stroke:none"
         id="path16" />
      <path
         d="m 1178.29,2780.59 c 124.03,76.13 311.88,110.32 453.78,52.96 49.51,-20.01 74.05,-59.28 93.28,24.52 23.4,102.04 -84.12,225.66 -187.64,112.36 -100.72,103.58 -277.33,74.24 -314.09,-9.31 -121.73,-1.94 -181.53,-88.33 -126.6,-165.58 38.22,-53.74 39.99,-40.27 81.27,-14.95"
         style="fill:#de167d;fill-opacity:1;fill-rule:evenodd;stroke:none"
         id="path18" />
      <path
         d="m 1155.44,2818.04 c 70.01,42.96 158.61,73.55 248.9,84.08 83.45,9.74 169.11,2.43 244.04,-27.87 12.79,-5.16 23.6,-11.09 33.31,-16.39 7.06,-3.86 13.23,-7.24 15.17,-7.68 11.17,-2.56 -16.76,6.85 -14.28,17.68 5.44,23.69 0.3,49.43 -11.65,70.02 -6.62,11.41 -15.27,20.89 -25.18,26.98 -8.18,5.04 -17.34,7.6 -26.73,6.59 -14.22,-1.55 -30.76,-10.77 -48.85,-30.56 -16.31,-17.93 -44.07,-19.23 -61.99,-2.93 l -3.04,3.05 c -15.56,15.68 -33.5,27.51 -52.51,35.87 -33.36,14.67 -69.75,18.65 -102.53,14.33 -31.03,-4.08 -57.95,-15.32 -74.61,-31.52 -5.14,-5 -9.14,-10.47 -11.69,-16.26 -7.55,-17.15 -24.76,-27.07 -42.42,-26.17 -32.69,-0.96 -58.75,-9.26 -76.66,-21.99 -8.48,-6.04 -14.9,-12.99 -19,-20.43 -3.65,-6.63 -5.53,-13.71 -5.42,-20.81 0.16,-10.14 4.16,-21.4 12.45,-33.07 8.5,-11.96 5.01,-14.28 6.59,-13.24 l 2.57,1.58 c 4.99,3.27 10.29,6.76 13.53,8.74 z m 258.85,-3.17 c -77.7,-9.07 -153.58,-35.16 -213.16,-71.72 l -11.12,-7.02 -2.23,-1.57 c -56.96,-37.6 -68.88,-45.46 -126.49,35.56 -18.97,26.68 -28.14,54.93 -28.57,82.54 -0.37,22.85 5.2,44.71 16.06,64.43 10.43,18.91 25.66,35.82 45.09,49.63 26.83,19.07 62.06,32.35 103.79,36.7 4.93,6.74 10.51,13.13 16.68,19.13 30.08,29.26 74.92,49.04 124.41,55.56 47.73,6.29 100.71,0.52 149.27,-20.86 16.98,-7.47 33.47,-16.86 49.07,-28.32 24.14,17.82 48.75,27.16 72.66,29.77 30.06,3.26 57.97,-4.15 82.03,-18.95 22.34,-13.75 41.22,-34.04 55.06,-57.9 22.39,-38.56 31.82,-87.59 21.27,-133.57 -18.02,-78.55 -47.15,-93.65 -90.83,-83.63 -13.39,3.07 -24.62,9.21 -37.5,16.26 -7.34,4.02 -15.53,8.5 -24.02,11.93 -60.56,24.48 -131.43,30.2 -201.47,22.03"
         style="fill:#000000;fill-opacity:1;fill-rule:nonzero;stroke:none"
         id="path20" />
      <path
         d="m 2941.41,2780.59 c -124.03,76.13 -311.89,110.32 -453.78,52.96 -49.51,-20.01 -74.06,-59.28 -93.28,24.52 -23.4,102.04 84.11,225.66 187.63,112.36 100.73,103.58 277.34,74.24 314.1,-9.31 121.72,-1.94 181.53,-88.33 126.6,-165.58 -38.22,-53.74 -39.99,-40.27 -81.27,-14.95"
         style="fill:#de167d;fill-opacity:1;fill-rule:evenodd;stroke:none"
         id="path22" />
      <path
         d="m 2918.57,2743.15 c -59.59,36.56 -135.46,62.65 -213.16,71.72 -70.05,8.17 -140.91,2.45 -201.47,-22.03 -8.49,-3.43 -16.68,-7.91 -24.03,-11.93 -12.88,-7.05 -24.09,-13.19 -37.49,-16.26 -43.68,-10.02 -72.81,5.08 -90.83,83.63 -10.55,45.98 -1.12,95.01 21.27,133.57 13.84,23.86 32.72,44.15 55.06,57.9 24.06,14.8 51.97,22.21 82.03,18.95 23.91,-2.61 48.52,-11.95 72.66,-29.77 15.6,11.46 32.09,20.85 49.07,28.32 48.56,21.38 101.54,27.15 149.26,20.86 49.5,-6.52 94.33,-26.3 124.42,-55.56 6.16,-6 11.75,-12.39 16.68,-19.13 41.73,-4.35 76.96,-17.63 103.78,-36.7 19.44,-13.81 34.67,-30.72 45.1,-49.63 10.86,-19.72 16.42,-41.58 16.06,-64.43 -0.43,-27.61 -9.6,-55.86 -28.57,-82.54 -57.61,-81.02 -69.53,-73.17 -126.49,-35.56 l -2.23,1.57 z m -203.21,158.97 c 90.29,-10.53 178.88,-41.12 248.9,-84.08 3.23,-1.98 8.54,-5.47 13.53,-8.74 l 2.56,-1.58 c 1.59,-1.04 -1.91,1.28 6.6,13.24 8.29,11.67 12.28,22.93 12.44,33.07 0.11,7.1 -1.76,14.18 -5.41,20.81 -4.1,7.44 -10.52,14.4 -19,20.43 -17.93,12.74 -43.97,21.03 -76.66,21.99 -17.66,-0.9 -34.87,9.02 -42.43,26.17 -2.54,5.79 -6.54,11.26 -11.68,16.26 -16.66,16.2 -43.58,27.44 -74.61,31.52 -32.78,4.32 -69.17,0.34 -102.54,-14.33 -19,-8.36 -36.95,-20.19 -52.5,-35.87 l -3.04,-3.05 c -17.92,-16.3 -45.68,-15 -61.99,2.93 -18.09,19.79 -34.63,29.01 -48.85,30.56 -9.4,1.01 -18.55,-1.55 -26.73,-6.59 -9.91,-6.09 -18.57,-15.57 -25.18,-26.98 -11.95,-20.59 -17.09,-46.33 -11.66,-70.02 2.48,-10.83 -25.43,-20.24 -14.27,-17.68 1.94,0.44 8.11,3.82 15.16,7.68 9.71,5.3 20.53,11.23 33.32,16.39 74.93,30.3 160.59,37.61 244.04,27.87"
         style="fill:#000000;fill-opacity:1;fill-rule:nonzero;stroke:none"
         id="path24" />
      <path
         d="m 2360.16,4185.84 132.66,-633.3 c 125.56,-19.02 255.04,-46.84 381.05,-86.33 -41.82,81.37 -71.46,164.07 -81.78,235.42 -13.14,90.82 4.41,166.14 64.94,206.13 2.15,1.43 4.63,2.94 7.45,4.55 l 2.57,1.52 c 7.4,4.07 14.65,8.23 21.77,12.47 -78.56,69.08 -162.74,123.23 -249.36,165.04 -91.5,44.17 -185.87,74.64 -279.3,94.5"
         style="fill:#666666;fill-opacity:1;fill-rule:nonzero;stroke:none"
         id="path26" />
      <path
         d="m 1230.87,3926.3 c 7.11,-4.24 14.37,-8.4 21.77,-12.47 l 2.56,-1.52 c 2.84,-1.61 5.32,-3.13 7.46,-4.55 60.53,-39.99 78.08,-115.31 64.93,-206.13 -10.31,-71.33 -39.93,-154.01 -81.73,-235.35 125.76,39.41 254.95,67.18 380.37,86.18 l 133.23,633.36 c -93.42,-19.85 -187.76,-50.32 -279.23,-94.48 -86.62,-41.81 -170.8,-95.96 -249.36,-165.04"
         style="fill:#666666;fill-opacity:1;fill-rule:nonzero;stroke:none"
         id="path28" />
      <path
         d="m 796.898,3100.05 c -0.988,-3.19 -2.332,-6.25 -3.996,-9.1 -18.246,-43.4 -26.925,-90.39 -27.214,-132.3 -0.176,-25.33 2.832,-48.46 8.73,-67.28 4.566,-14.55 10.281,-25.2 16.789,-30.28 3.195,-2.49 8.523,-2.46 16.172,1.03 l 13.094,5.84 c 2.324,1.27 4.773,2.33 7.324,3.17 102.605,43.75 230.023,76.6 366.503,101.1 181.24,32.53 378.66,50.54 554.61,60.02 85.12,4.57 152.4,-80 214.68,-158.29 40.23,-50.58 77.75,-97.75 96.08,-97.63 h 0.35 c 18.33,-0.12 55.85,47.05 96.08,97.63 62.28,78.29 129.56,162.86 214.69,158.29 175.94,-9.48 373.36,-27.49 554.6,-60.02 145.69,-26.16 281.05,-61.81 386.92,-110.11 7.64,-3.48 12.98,-3.52 16.17,-1.03 6.51,5.08 12.22,15.73 16.79,30.28 5.9,18.82 8.91,41.95 8.73,67.28 -0.29,41.94 -8.98,88.97 -27.25,132.38 -1.58,2.74 -2.88,5.68 -3.86,8.8 -19.56,42.84 -48.75,81.48 -88.76,107.26 -80.55,51.8 -168.22,95 -259.58,130.86 -10.96,-0.09 -21.78,3.9 -30.09,11.5 -18.82,7.01 -37.8,13.73 -56.87,20.13 -143.39,48.22 -293.15,80.19 -437.08,100.49 -18,2.35 -33.37,15.8 -37.28,34.57 l -156.39,746.57 c -18.41,87.9 -151.95,83.72 -193.32,82.3 -2.52,-0.1 -4.83,-0.1 -7.35,0 -41.37,1.42 -174.85,5.6 -193.32,-82.3 L 1705.8,3504.55 c -3.91,-18.76 -19.28,-32.22 -37.28,-34.57 -143.89,-20.29 -293.42,-52.23 -436.57,-100.39 -19,-6.39 -37.88,-13.07 -56.62,-20.04 -8.35,-7.7 -19.28,-11.73 -30.32,-11.59 -91.28,-35.86 -178.885,-79.05 -259.451,-130.87 -39.946,-25.74 -69.106,-64.3 -88.661,-107.04"
         style="fill:#cccccc;fill-opacity:1;fill-rule:nonzero;stroke:none"
         id="path30" />
      <path
         d="m 768.809,3001.84 c -1.996,-14.74 -3.024,-29.24 -3.121,-43.19 -0.176,-25.33 2.832,-48.46 8.73,-67.28 4.566,-14.55 10.281,-25.2 16.789,-30.28 3.195,-2.49 8.523,-2.46 16.172,1.03 l 13.094,5.84 c 2.324,1.27 4.773,2.33 7.324,3.17 102.605,43.75 230.023,76.6 366.503,101.1 181.24,32.53 378.66,50.54 554.61,60.02 85.12,4.57 152.4,-80 214.68,-158.29 40.23,-50.58 77.75,-97.75 96.08,-97.63 h 0.35 c 18.33,-0.12 55.85,47.05 96.08,97.63 62.28,78.29 129.56,162.86 214.69,158.29 175.94,-9.48 373.36,-27.49 554.6,-60.02 145.69,-26.16 281.05,-61.81 386.92,-110.11 7.64,-3.48 12.98,-3.52 16.17,-1.03 6.51,5.08 12.22,15.73 16.79,30.28 5.9,18.82 8.91,41.95 8.73,67.28 -0.1,13.94 -1.12,28.45 -3.12,43.19 -391.09,141.98 -852.67,213.77 -1251.48,220.35 l 60.48,-113.9 c 23.69,-44.66 -23.11,-149.55 -100.04,-223.38 -76.91,73.83 -123.72,178.72 -100.03,223.38 l 60.48,113.9 c -398.82,-6.58 -860.39,-78.37 -1251.481,-220.35"
         style="fill:#9c9090;fill-opacity:1;fill-rule:nonzero;stroke:none"
         id="path32" />
      <path
         d="m 1021.09,1683.59 c 87.7,-68.11 206.18,-110.14 359.57,-104.19 172.96,6.69 389.75,73.98 656.31,231.96 2.14,1.18 3.78,2.09 5.95,3.03 5.48,2.31 11.23,3.41 16.92,3.4 5.7,0.01 11.45,-1.1 16.92,-3.39 2.17,-0.95 3.82,-1.86 5.95,-3.04 266.56,-157.98 483.36,-225.27 656.32,-231.96 153.4,-5.95 271.87,36.08 359.56,104.19 60,46.61 105.99,105.53 139.17,169.73 0.81,1.92 1.76,3.79 2.85,5.59 14.11,28.05 25.8,57.06 35.18,86.45 19.29,60.49 28.83,122.44 29.46,180.89 -78.43,-78.78 -192.54,-67.58 -325.11,-23.41 -60.84,20.29 -123.42,46.89 -188.16,74.41 -243.03,103.31 -518.73,220.49 -697.25,-9.25 -1.18,-1.55 -2.46,-3.02 -3.86,-4.42 -3.24,-3.25 -6.85,-5.87 -10.71,-7.88 l -1.71,-0.85 c -5.48,-2.56 -11.32,-3.92 -17.17,-4.11 h -2.87 c -5.85,0.19 -11.7,1.55 -17.16,4.11 l -1.72,0.85 c -3.86,2.01 -7.47,4.63 -10.66,7.82 -1.45,1.46 -2.73,2.93 -3.91,4.48 -178.52,229.74 -454.22,112.56 -697.25,9.25 -64.74,-27.52 -127.33,-54.12 -188.16,-74.41 -132.57,-44.17 -246.675,-55.37 -325.109,23.41 1.758,-162.14 76.719,-341.71 206.649,-442.66 z m -182.942,71.16 c -97.39,-157.67 -122.64,-361.66 -105.769,-543.04 17.785,-191.35 81.726,-378.351 175.566,-515.835 -0.121,8.879 -0.14,17.832 -0.062,26.875 0.519,57.148 5.277,117.133 16.887,181.285 4.261,23.801 27.031,39.637 50.835,35.375 17.067,-3.062 30.035,-15.629 34.445,-31.281 75.48,-269.238 373.1,-410.723 637.97,-536.633 167.12,-79.449 322.03,-153.105 411.82,-252.625 89.8,99.52 244.71,173.176 411.84,252.625 264.86,125.91 562.48,267.395 637.88,536.66 4.49,15.625 17.46,28.192 34.52,31.254 23.81,4.262 46.58,-11.574 50.84,-35.375 11.62,-64.152 16.37,-124.137 16.88,-181.285 0.08,-9.043 0.07,-17.996 -0.05,-26.867 93.84,137.476 157.77,324.477 175.56,515.827 18.02,193.73 -11.56,390.7 -105.77,543.04 -34.42,-52.38 -77.24,-100.32 -129.02,-140.55 -102.86,-79.88 -240.34,-129.22 -416.58,-122.39 -182.01,7.04 -405.9,74.39 -676.1,231.21 -270.19,-156.82 -494.09,-224.17 -676.09,-231.21 -176.25,-6.83 -313.73,42.51 -416.578,122.39 -51.785,40.23 -94.602,88.17 -129.024,140.55 z M 645.125,1203.81 c -14.473,155.56 -0.273,313.78 50.055,454.15 -11.196,-1.12 -22.66,-1.82 -34.367,-2.1 -45.747,-1.12 -95.059,3.99 -144.172,15.52 -56.168,13.17 -133.243,44.25 -194.106,86.85 -11.715,8.2 -22.883,16.86 -33.305,25.96 C 174.59,1718.46 116.695,1608.86 100.387,1486.96 86.832,1385.72 101.23,1276.14 135.34,1175 c 5.594,9.8 11.848,19.21 18.773,28.24 32.575,42.49 79.145,75.51 140.442,100.81 22.379,9.2 47.996,-1.48 57.191,-23.86 5.988,-14.56 3.555,-30.5 -5.047,-42.38 -54.117,-74.67 -43.582,-131.56 -32.89,-189.28 6.722,-36.3 13.492,-72.882 10.082,-113.975 61.543,14.047 117.297,34.816 167.027,60.961 65.203,34.274 120.164,77.844 164.32,127.614 -4.211,26.76 -7.605,53.7 -10.113,80.68 z m 92.152,550.9 c 11.93,22.97 25.036,45.24 39.352,66.68 -50.09,-20.59 -104.164,-31.16 -158.535,-30.05 -75.653,1.54 -151.844,25.59 -218.789,76.48 -32.801,24.95 -62.035,54.33 -87.2,86.78 -1.48,-2.42 -2.781,-4.82 -3.921,-7.18 -8.938,-18.51 -6.844,-36.77 2.23,-53.87 12.051,-22.67 34.816,-44.29 62.277,-63.52 51.079,-35.76 116.223,-61.94 163.875,-73.12 42.414,-9.96 84.192,-14.4 122.188,-13.46 28.918,0.7 55.598,4.49 78.523,11.26 z M 929.031,533.363 C 812.602,648.109 722.828,824.957 675.945,1019.08 634.148,980.574 586.023,946.383 531.789,917.883 456.938,878.531 370.496,850.02 273.199,835.953 c -6.894,-0.953 -14.121,-0.312 -21.121,2.223 -22.765,8.25 -34.535,33.398 -26.285,56.168 18.184,49.918 9.945,94.418 1.805,138.396 -6.5,35.08 -12.95,69.94 -10.653,107.55 -17.359,-26.48 -27.023,-58.23 -29.308,-95.98 0.23,-16.09 -8.426,-31.72 -23.672,-39.65 -21.527,-11.195 -48.067,-2.8 -59.262,18.72 -2.719,5.24 -6.703,13.3 -12.1717,24.71 -65.8555,137.37 -98.98443,301.26 -79.0469,450.21 19.1797,143.35 86.5039,273.08 219.0706,354.46 -21.641,41.02 -26.047,85.81 -3.379,132.79 7.679,15.9 18.523,31.76 32.933,47.45 -36.836,71.32 -57.007,151.04 -56.859,228.57 0.176,82.13 23.094,161.98 72.953,227.56 23.867,31.41 53.66,59.33 89.797,82.44 -7.723,140.15 6.758,268.52 58.75,370.29 44.012,86.16 113.402,152.15 216.531,189.02 -95.89,76.04 -172.508,176.3 -228.422,290.89 -80.453,164.88 -118.117,360.02 -108.621,555.11 9.516,195.32 66.289,390.95 174.7,556.58 89.546,136.81 214.121,253.19 376.125,332.24 41.546,20.27 80.058,30.57 111.648,29.41 26.371,-0.96 48.689,-9.42 65.629,-25.97 l 0.21,-0.21 c 16.74,-16.42 26.49,-39.05 27.68,-68.25 1.36,-33.89 -9.69,-79.01 -36.68,-136.08 -70.066,-148.17 -86.28,-299.55 -45.652,-433.17 29.062,-95.59 87.592,-182.79 176.692,-253.91 89.52,81.68 186.07,144.82 285.51,192.82 110.8,53.5 225.13,88.2 337.3,108.9 39.48,149.82 222.95,143.81 279.78,141.85 h 1.32 c 56.86,1.96 240.43,7.98 279.8,-141.85 112.15,-20.7 226.49,-55.4 337.29,-108.9 99.44,-48 195.99,-111.14 285.51,-192.82 89.1,71.12 147.63,158.32 176.69,253.91 40.63,133.62 24.41,285 -45.65,433.17 -27,57.07 -38.05,102.19 -36.68,136.08 1.18,29.2 10.93,51.83 27.68,68.25 l 0.21,0.21 c 16.94,16.55 39.26,25.01 65.63,25.97 31.59,1.16 70.1,-9.14 111.65,-29.41 162,-79.05 286.58,-195.43 376.12,-332.24 108.41,-165.63 165.18,-361.26 174.7,-556.58 9.5,-195.09 -28.16,-390.23 -108.62,-555.11 -55.08,-112.88 -130.26,-211.86 -224.15,-287.48 108.62,-36.12 181.04,-103.53 226.45,-192.43 51.99,-101.77 66.48,-230.14 58.75,-370.29 36.14,-23.11 65.93,-51.03 89.8,-82.44 49.86,-65.58 72.78,-145.44 72.95,-227.56 0.15,-77.53 -20.02,-157.26 -56.86,-228.57 14.41,-15.69 25.26,-31.55 32.93,-47.45 22.67,-46.98 18.27,-91.77 -3.38,-132.79 132.58,-81.38 199.9,-211.11 219.08,-354.46 19.94,-148.95 -13.19,-312.84 -79.05,-450.21 -5.47,-11.41 -9.45,-19.47 -12.17,-24.71 -11.2,-21.52 -37.73,-29.915 -59.26,-18.72 -15.25,7.93 -23.91,23.57 -23.67,39.66 -2.28,37.76 -11.95,69.49 -29.31,95.98 2.29,-37.6 -4.15,-72.46 -10.65,-107.56 -8.15,-43.978 -16.38,-88.478 1.8,-138.396 8.25,-22.77 -3.52,-47.918 -26.29,-56.168 -7,-2.535 -14.23,-3.176 -21.11,-2.192 -97.3,14.036 -183.74,42.547 -258.6,81.899 -59.31,31.176 -111.35,69.156 -155.75,112.157 -46.13,-198.415 -137.07,-379.778 -255.68,-496.677 -17.27,-16.968 -45.04,-16.738 -62.01,0.52 -9.63,9.805 -13.73,22.996 -12.3,35.668 4.9,49.492 8.35,100.047 7.87,152.512 l -0.08,6.738 c -132.4,-207.211 -385.28,-327.449 -615.02,-436.66 -180.92,-86 -346.58,-164.77 -411.94,-268.2465 -1.61,-2.5937 -3.49,-5.0429 -5.64,-7.2968 l -1.39,-1.3907 c -3.51,-3.3672 -7.51,-6.06637 -11.81,-8.05075 l -1.73,-0.76562 C 2071.62,4.32422 2066.43,3.25 2061.26,3.08203 h -2.83 c -5.17,0.16016 -10.36,1.24219 -15.32,3.30078 l -1.76,0.77344 c -4.3,1.98438 -8.29,4.68355 -11.81,8.05075 l -1.39,1.3907 c -2.15,2.2539 -4.04,4.7031 -5.64,7.2968 C 1957.15,127.371 1791.48,206.141 1610.57,292.141 1380.82,401.352 1127.95,521.59 995.551,728.801 l -0.082,-6.738 c -0.465,-52.473 2.972,-103.02 7.871,-152.512 1.43,-12.672 -2.66,-25.863 -12.305,-35.668 -16.969,-17.258 -44.738,-17.488 -62.004,-0.52 z m 2849.759,1513.227 1.09,1.8 c 3.7,6.13 7.24,12.35 10.64,18.66 32.68,60.81 50.66,128.9 50.52,194.52 -0.13,63.75 -17.44,125.13 -55.09,174.66 -21.25,27.95 -49.41,52.48 -85.08,71.88 -15.49,7.67 -25.62,24.15 -24.33,42.46 10.13,136.35 -0.38,259.42 -47.39,351.44 -37.95,74.28 -101.51,129.45 -200.11,156.05 3.63,-14.91 6.45,-29.8 8.49,-44.47 60.68,-7.19 109.13,-44.25 144.59,-97.85 33.65,-50.84 55.48,-117.5 64.4,-186.33 4.61,-35.71 5.83,-71.9 3.46,-106.61 -7.32,-107.44 -37.8,-224.06 -90.03,-319.37 -41.65,-76.03 -97.46,-139.2 -167.06,-175.33 -0.53,-67.83 -11.4,-139.49 -33.63,-209.19 l -0.46,-1.41 c 47.51,-25.92 101.25,-39.68 155.27,-38.57 57.91,1.18 116.29,19.61 167.61,58.63 38.64,29.39 71.45,66.93 97.11,109.03 z m 46.91,-99.17 c -1.14,2.36 -2.44,4.76 -3.92,7.18 -25.17,-32.45 -54.4,-61.83 -87.2,-86.78 -66.95,-50.89 -143.14,-74.94 -218.79,-76.48 -61.81,-1.25 -123.22,12.57 -178.84,39.05 15.44,-22.35 29.52,-45.62 42.31,-69.69 26.34,-10.56 59.31,-16.37 95.87,-17.25 38,-0.94 79.77,3.5 122.19,13.46 47.65,11.18 112.79,37.36 163.87,73.12 27.46,19.23 50.23,40.85 62.27,63.52 9.08,17.1 11.17,35.36 2.24,53.87 z m 18.95,-163.23 c -10.42,-9.1 -21.59,-17.76 -33.3,-25.96 -60.85,-42.59 -137.94,-73.68 -194.11,-86.85 -49.11,-11.53 -98.42,-16.64 -144.17,-15.52 -16.93,0.41 -33.37,1.69 -49.17,3.83 50.83,-140.79 65.19,-299.68 50.66,-455.88 -2.07,-22.32 -4.75,-44.61 -8,-66.79 l 2.29,-2.54 c 45.72,-54.5 103.99,-102.11 174.11,-138.964 49.73,-26.145 105.49,-46.914 167.03,-60.961 -3.41,41.093 3.36,77.675 10.08,113.975 10.7,57.72 21.23,114.61 -32.96,189.23 -8.53,11.93 -10.96,27.87 -4.98,42.43 9.2,22.38 34.82,33.06 57.2,23.86 61.3,-25.3 107.87,-58.32 140.45,-100.81 6.92,-9.03 13.17,-18.44 18.76,-28.24 34.11,101.14 48.51,210.72 34.96,311.96 -16.31,121.9 -74.21,231.5 -188.85,297.23 z M 354,2048.39 l 1.086,-1.8 c 25.672,-42.1 58.473,-79.64 97.121,-109.03 51.32,-39.02 109.691,-57.45 167.609,-58.63 49.465,-1.01 98.692,10.44 143.122,32.28 l -2.508,7.7 c -22.242,69.73 -33.11,141.43 -33.629,209.27 -69.684,36.17 -125.574,99.52 -167.281,175.78 -52.098,95.27 -82.508,211.66 -89.813,318.84 -2.355,34.6 -1.16,70.69 3.422,106.33 8.871,68.86 30.715,135.58 64.359,186.5 35.469,53.68 83.938,90.77 144.668,97.96 1.836,13.22 4.309,26.61 7.438,40.04 -89.949,-28.02 -148.903,-81.25 -184.86,-151.62 -47.011,-92.02 -57.519,-215.09 -47.394,-351.44 1.164,-16.69 -7.324,-33.32 -23.012,-41.75 -36.289,-19.5 -64.883,-44.29 -86.39,-72.59 -37.657,-49.53 -54.969,-110.9 -55.098,-174.66 -0.137,-65.62 17.832,-133.7 50.527,-194.52 3.395,-6.31 6.938,-12.53 10.633,-18.66 z m 442.898,1051.66 c -0.988,-3.19 -2.332,-6.25 -3.996,-9.1 -18.246,-43.4 -26.925,-90.39 -27.214,-132.3 -0.176,-25.33 2.832,-48.46 8.73,-67.28 4.566,-14.55 10.281,-25.2 16.789,-30.28 3.195,-2.49 8.523,-2.46 16.172,1.03 l 13.094,5.84 c 2.324,1.27 4.773,2.33 7.324,3.17 102.605,43.75 230.023,76.6 366.503,101.1 181.24,32.53 378.66,50.54 554.61,60.02 85.12,4.57 152.4,-80 214.68,-158.29 40.23,-50.58 77.75,-97.75 96.08,-97.63 h 0.35 c 18.33,-0.12 55.85,47.05 96.08,97.63 62.28,78.29 129.56,162.86 214.69,158.29 175.94,-9.48 373.36,-27.49 554.6,-60.02 145.69,-26.16 281.05,-61.81 386.92,-110.11 7.64,-3.48 12.98,-3.52 16.17,-1.03 6.51,5.08 12.22,15.73 16.79,30.28 5.9,18.82 8.91,41.95 8.73,67.28 -0.29,41.94 -8.98,88.97 -27.25,132.38 -1.58,2.74 -2.88,5.68 -3.86,8.8 -19.56,42.84 -48.75,81.48 -88.76,107.26 -80.55,51.8 -168.22,95 -259.58,130.86 -10.96,-0.09 -21.78,3.9 -30.09,11.5 -18.82,7.01 -37.8,13.73 -56.87,20.13 -143.39,48.22 -293.15,80.19 -437.08,100.49 -18,2.35 -33.37,15.8 -37.28,34.57 l -156.39,746.57 c -18.41,87.9 -151.95,83.72 -193.32,82.3 -2.52,-0.1 -4.83,-0.1 -7.35,0 -41.37,1.42 -174.85,5.6 -193.32,-82.3 L 1705.8,3504.55 c -3.91,-18.76 -19.28,-32.22 -37.28,-34.57 -143.89,-20.29 -293.42,-52.23 -436.57,-100.39 -19,-6.39 -37.88,-13.07 -56.62,-20.04 -8.35,-7.7 -19.28,-11.73 -30.32,-11.59 -91.28,-35.86 -178.885,-79.05 -259.451,-130.87 -39.946,-25.74 -69.106,-64.3 -88.661,-107.04 z m -303.035,360.21 c 57.59,-118.04 138.992,-218.73 242.129,-288.54 25.149,43 58.926,81.35 102.168,109.21 87.375,56.21 182.37,102.76 281.25,141.15 12.23,19.26 23.9,38.95 34.83,58.85 44.74,81.35 76.51,164.32 86.45,233.06 8.31,57.37 1.59,102.07 -26.46,120.61 l -2.39,1.53 -1.44,0.76 c -165.44,90.94 -269.283,220.98 -314.326,369.13 -47.074,154.82 -29.258,328.15 50.117,496.03 20.672,43.69 29.262,74.9 28.457,95.2 -0.207,5.18 -0.75,8.15 -1.531,9.09 -0.793,0.63 -3.406,1.05 -7.5,1.19 -16.844,0.61 -41.062,-6.68 -70.07,-20.83 C 748.645,4715.02 635.672,4609.46 554.453,4485.38 454.809,4333.13 402.602,4152.93 393.824,3972.77 385.039,3792.36 419.73,3612.18 493.863,3460.26 Z m 737.007,466.04 c 7.11,-4.24 14.37,-8.4 21.77,-12.47 l 2.56,-1.52 c 2.84,-1.61 5.32,-3.13 7.46,-4.55 60.53,-39.99 78.08,-115.31 64.93,-206.13 -10.31,-71.33 -39.93,-154.01 -81.73,-235.35 125.76,39.41 254.95,67.18 380.37,86.18 l 133.23,633.36 c -93.42,-19.85 -187.76,-50.32 -279.23,-94.48 -86.62,-41.81 -170.8,-95.96 -249.36,-165.04 z m 1129.29,259.54 132.66,-633.3 c 125.56,-19.02 255.04,-46.84 381.05,-86.33 -41.82,81.37 -71.46,164.07 -81.78,235.42 -13.14,90.82 4.41,166.14 64.94,206.13 2.15,1.43 4.63,2.94 7.45,4.55 l 2.57,1.52 c 7.4,4.07 14.65,8.23 21.77,12.47 -78.56,69.08 -162.74,123.23 -249.36,165.04 -91.5,44.17 -185.87,74.64 -279.3,94.5 z m 640.16,-763.83 c 98.9,-38.39 193.91,-84.93 281.21,-141.08 43.24,-27.86 77.02,-66.21 102.17,-109.21 103.13,69.81 184.53,170.5 242.12,288.54 74.14,151.92 108.83,332.1 100.04,512.51 -8.77,180.16 -60.98,360.36 -160.63,512.61 -81.21,124.08 -194.19,229.64 -341.09,301.32 -29.01,14.15 -53.23,21.44 -70.07,20.83 -4.1,-0.14 -6.71,-0.56 -7.5,-1.19 -0.78,-0.94 -1.32,-3.91 -1.53,-9.09 -0.81,-20.3 7.78,-51.51 28.46,-95.2 79.37,-167.88 97.19,-341.21 50.12,-496.03 -45.05,-148.15 -148.89,-278.19 -314.33,-369.13 l -1.44,-0.76 -2.39,-1.53 c -28.05,-18.54 -34.77,-63.24 -26.46,-120.61 9.94,-68.74 41.71,-151.71 86.45,-233.06 10.94,-19.92 22.62,-39.64 34.87,-58.92 z m 439.88,-498.23 c -1.88,-21.23 -5.61,-40.99 -11.11,-58.51 -9.78,-31.16 -25.47,-56.67 -46.69,-73.23 -17.74,-13.85 -37.92,-21.34 -60.24,-20.93 v -23.98 c 8.88,8.08 17.83,14.26 26.72,18.66 30.42,15.02 59.89,12.84 86.32,-3.08 21.19,-12.89 38.92,-34.83 51.61,-63.33 30.88,-69.25 35.83,-189.36 -14.91,-307.44 -9.58,-22.28 -35.43,-32.59 -57.71,-23.01 -22.29,9.58 -32.59,35.43 -23.02,57.71 40.49,94.22 38.32,186.05 15.6,237.02 -5.43,12.2 -11.22,20.51 -16.75,23.83 h -0.17 c -0.39,0.23 -1.12,0.14 -2.15,-0.38 -19.5,-9.63 -42.47,-45.94 -65.54,-119.62 v -262 c 8.1,2.27 16.93,2.24 25.51,-0.6 14.77,-4.89 25.2,-16.9 28.73,-30.95 l 0.12,0.02 c 3.77,-15.07 6.91,-30.69 9.39,-46.77 38.18,28.89 70.69,70.28 97.09,118.48 45.99,83.92 72.87,187.3 79.39,282.97 2.03,29.7 1.06,60.17 -2.77,89.78 -7.24,55.92 -24.45,109.27 -50.66,148.88 -18.69,28.24 -41.85,48.84 -68.76,56.48 z M 3234.22,2800.1 c -91.94,36.29 -204.09,64.33 -324.29,85.91 -176.56,31.7 -370.35,49.33 -543.61,58.65 -40.12,2.15 -92.79,-64.04 -141.52,-125.31 -53.67,-67.49 -103.75,-130.42 -164.3,-130.6 h -1.32 c -60.53,0.18 -110.62,63.11 -164.29,130.6 -48.73,61.27 -101.4,127.46 -141.52,125.31 -173.26,-9.32 -367.05,-26.95 -543.61,-58.65 -120.2,-21.58 -232.354,-49.62 -324.291,-85.91 v -612.81 c 55.289,-42.38 134.661,-31.94 226.591,-1.31 55.31,18.43 117.24,44.77 181.3,72 258.23,109.76 549.38,233.47 766.48,3.87 217.11,229.6 508.26,105.89 766.49,-3.87 64.06,-27.23 125.99,-53.57 181.3,-72 91.93,-30.63 171.3,-41.07 226.59,1.31 z m -2543.622,65.17 c -5.496,17.52 -9.235,37.28 -11.106,58.51 -26.945,-7.65 -50.133,-28.28 -68.84,-56.58 -26.214,-39.66 -43.414,-93.08 -50.625,-149.07 -3.8,-29.51 -4.75,-59.88 -2.734,-89.49 6.527,-95.66 33.336,-198.95 79.168,-282.77 26.43,-48.31 59,-89.82 97.305,-118.78 2.492,16.12 5.629,31.77 9.402,46.87 l 0.121,-0.02 c 3.527,14.05 13.957,26.06 28.731,30.95 8.582,2.84 17.41,2.87 25.511,0.6 v 262 c -23.074,73.68 -46.035,109.99 -65.543,119.62 -1.035,0.52 -1.765,0.61 -2.152,0.38 h -0.168 c -5.531,-3.32 -11.316,-11.63 -16.754,-23.83 -22.723,-50.98 -24.883,-142.8 15.602,-237.02 9.578,-22.28 -0.731,-48.13 -23.012,-57.71 -22.285,-9.58 -48.141,0.73 -57.715,23.01 -50.738,118.08 -45.789,238.19 -14.914,307.44 12.699,28.5 30.426,50.44 51.664,63.26 26.391,15.99 55.859,18.17 86.266,3.15 8.89,-4.4 17.843,-10.58 26.726,-18.66 v 23.98 c -22.32,-0.42 -42.5,7.07 -60.246,20.93 -21.211,16.55 -36.91,42.07 -46.687,73.23 z m 1369.242,680.31 c 63.53,0 121.08,-25.76 162.71,-67.39 41.63,-41.63 67.39,-99.18 67.39,-162.71 0,-63.41 -25.76,-120.89 -67.39,-162.53 v -0.17 c -41.63,-41.63 -99.18,-67.39 -162.71,-67.39 -63.41,0 -120.88,25.76 -162.53,67.39 l -0.17,0.17 c -41.63,41.64 -67.39,99.12 -67.39,162.53 0,63.53 25.76,121.08 67.39,162.71 l 2.66,2.44 c 41.43,40.19 97.88,64.95 160.04,64.95 z m 100.54,-129.56 c -25.72,25.71 -61.27,41.62 -100.54,41.62 -38.34,0 -73.11,-15.09 -98.65,-39.63 l -1.87,-1.99 c -25.72,-25.72 -41.64,-61.27 -41.64,-100.54 0,-39.32 15.89,-74.89 41.55,-100.6 25.72,-25.67 61.29,-41.56 100.61,-41.56 39.27,0 74.82,15.92 100.54,41.63 l 0.07,-0.07 c 25.68,25.71 41.56,61.28 41.56,100.6 0,39.27 -15.92,74.82 -41.63,100.54"
         style="fill:#000000;fill-opacity:1;fill-rule:nonzero;stroke:none"
         id="path34" />
      <path
         d="m 2160.38,3416.02 c -25.72,25.71 -61.27,41.62 -100.54,41.62 -38.34,0 -73.11,-15.09 -98.65,-39.63 l -1.87,-1.99 c -25.72,-25.72 -41.64,-61.27 -41.64,-100.54 0,-39.32 15.89,-74.89 41.55,-100.6 25.72,-25.67 61.29,-41.56 100.61,-41.56 39.27,0 74.82,15.92 100.54,41.63 l 0.07,-0.07 c 25.68,25.71 41.56,61.28 41.56,100.6 0,39.27 -15.92,74.82 -41.63,100.54"
         style="fill:#666666;fill-opacity:1;fill-rule:nonzero;stroke:none"
         id="path36" />
      <path
         d="m 690.598,2865.27 c -5.496,17.52 -9.235,37.28 -11.106,58.51 -26.945,-7.65 -50.133,-28.28 -68.84,-56.58 -26.214,-39.66 -43.414,-93.08 -50.625,-149.07 -3.8,-29.51 -4.75,-59.88 -2.734,-89.49 6.527,-95.66 33.336,-198.95 79.168,-282.77 26.43,-48.31 59,-89.82 97.305,-118.78 2.492,16.12 5.629,31.77 9.402,46.87 l 0.121,-0.02 c 3.527,14.05 13.957,26.06 28.731,30.95 8.582,2.84 17.41,2.87 25.511,0.6 v 262 c -23.074,73.68 -46.035,109.99 -65.543,119.62 -1.035,0.52 -1.765,0.61 -2.152,0.38 h -0.168 c -5.531,-3.32 -11.316,-11.63 -16.754,-23.83 -22.723,-50.98 -24.883,-142.8 15.602,-237.02 9.578,-22.28 -0.731,-48.13 -23.012,-57.71 -22.285,-9.58 -48.141,0.73 -57.715,23.01 -50.738,118.08 -45.789,238.19 -14.914,307.44 12.699,28.5 30.426,50.44 51.664,63.26 26.391,15.99 55.859,18.17 86.266,3.15 8.89,-4.4 17.843,-10.58 26.726,-18.66 v 23.98 c -22.32,-0.42 -42.5,7.07 -60.246,20.93 -21.211,16.55 -36.91,42.07 -46.687,73.23"
         style="fill:#f7dcca;fill-opacity:1;fill-rule:nonzero;stroke:none"
         id="path38" />
      <path
         d="m 690.598,2865.27 c -5.496,17.52 -9.235,37.28 -11.106,58.51 -24.289,-6.89 -45.527,-24.34 -63.176,-48.44 35.598,-39.99 57.036,-80.21 68.18,-112.72 l 0.043,0.02 c 26.391,15.99 55.859,18.17 86.266,3.15 8.89,-4.4 17.843,-10.58 26.726,-18.66 v 23.98 c -22.32,-0.42 -42.5,7.07 -60.246,20.93 -21.211,16.55 -36.91,42.07 -46.687,73.23 z m -2.75,-594.63 c 14.242,-16.5 29.55,-31.17 45.918,-43.55 2.492,16.12 5.629,31.77 9.402,46.87 l 0.121,-0.02 c 3.527,14.05 13.957,26.06 28.731,30.95 8.582,2.84 17.41,2.87 25.511,0.6 v 262 c -23.074,73.68 -46.035,109.99 -65.543,119.62 -1.035,0.52 -1.765,0.61 -2.152,0.38 h -0.168 c -5.531,-3.32 -11.316,-11.63 -16.754,-23.83 -22.723,-50.98 -24.883,-142.8 15.602,-237.02 9.578,-22.28 -0.731,-48.13 -23.012,-57.71 -9.102,-3.91 -18.805,-4.5 -27.734,-2.32 3.847,-32.95 7.324,-66.95 10.078,-95.97"
         style="fill:#e6ab96;fill-opacity:1;fill-rule:nonzero;stroke:none"
         id="path40" />
      <path
         d="m 3440.2,2923.78 c -1.88,-21.23 -5.61,-40.99 -11.11,-58.51 -9.78,-31.16 -25.47,-56.67 -46.69,-73.23 -17.74,-13.85 -37.92,-21.34 -60.24,-20.93 v -23.98 c 8.88,8.08 17.83,14.26 26.72,18.66 30.42,15.02 59.89,12.84 86.32,-3.08 21.19,-12.89 38.92,-34.83 51.61,-63.33 30.88,-69.25 35.83,-189.36 -14.91,-307.44 -9.58,-22.28 -35.43,-32.59 -57.71,-23.01 -22.29,9.58 -32.59,35.43 -23.02,57.71 40.49,94.22 38.32,186.05 15.6,237.02 -5.43,12.2 -11.22,20.51 -16.75,23.83 h -0.17 c -0.39,0.23 -1.12,0.14 -2.15,-0.38 -19.5,-9.63 -42.47,-45.94 -65.54,-119.62 v -262 c 8.1,2.27 16.93,2.24 25.51,-0.6 14.77,-4.89 25.2,-16.9 28.73,-30.95 l 0.12,0.02 c 3.77,-15.07 6.91,-30.69 9.39,-46.77 38.18,28.89 70.69,70.28 97.09,118.48 45.99,83.92 72.87,187.3 79.39,282.97 2.03,29.7 1.06,60.17 -2.77,89.78 -7.24,55.92 -24.45,109.27 -50.66,148.88 -18.69,28.24 -41.85,48.84 -68.76,56.48"
         style="fill:#f7dcca;fill-opacity:1;fill-rule:nonzero;stroke:none"
         id="path42" />
      <path
         d="m 3440.2,2923.78 c -1.88,-21.23 -5.61,-40.99 -11.11,-58.51 -9.78,-31.16 -25.47,-56.67 -46.69,-73.23 -17.74,-13.85 -37.92,-21.34 -60.24,-20.93 v -23.98 c 8.88,8.08 17.83,14.26 26.72,18.66 30.42,15.02 59.89,12.84 86.32,-3.08 l 0.02,-0.01 c 11.14,32.5 32.59,72.68 68.15,112.63 -17.65,24.1 -38.87,41.56 -63.17,48.45 z m 1.72,-557.17 c -8.94,-2.18 -18.63,-1.59 -27.73,2.32 -22.29,9.58 -32.59,35.43 -23.02,57.71 40.49,94.22 38.32,186.05 15.6,237.02 -5.43,12.2 -11.22,20.51 -16.75,23.83 h -0.17 c -0.39,0.23 -1.12,0.14 -2.15,-0.38 -19.5,-9.63 -42.47,-45.94 -65.54,-119.62 v -262 c 8.1,2.27 16.93,2.24 25.51,-0.6 14.77,-4.89 25.2,-16.9 28.73,-30.95 l 0.12,0.02 c 3.77,-15.07 6.91,-30.69 9.39,-46.77 16.37,12.39 31.7,27.08 45.95,43.62 2.75,28.98 6.21,62.91 10.06,95.8"
         style="fill:#e6ab96;fill-opacity:1;fill-rule:nonzero;stroke:none"
         id="path44" />
      <path
         d="m 3000.32,3422.01 c 98.9,-38.39 193.91,-84.93 281.21,-141.08 43.24,-27.86 77.02,-66.21 102.17,-109.21 103.13,69.81 184.53,170.5 242.12,288.54 74.14,151.92 108.83,332.1 100.04,512.51 -8.77,180.16 -60.98,360.36 -160.63,512.61 -81.21,124.08 -194.19,229.64 -341.09,301.32 -29.01,14.15 -53.23,21.44 -70.07,20.83 -4.1,-0.14 -6.71,-0.56 -7.5,-1.19 -0.78,-0.94 -1.32,-3.91 -1.53,-9.09 -0.81,-20.3 7.78,-51.51 28.46,-95.2 79.37,-167.88 97.19,-341.21 50.12,-496.03 -45.05,-148.15 -148.89,-278.19 -314.33,-369.13 l -1.44,-0.76 -2.39,-1.53 c -28.05,-18.54 -34.77,-63.24 -26.46,-120.61 9.94,-68.74 41.71,-151.71 86.45,-233.06 10.94,-19.92 22.62,-39.64 34.87,-58.92"
         style="fill:#ffffff;fill-opacity:1;fill-rule:nonzero;stroke:none"
         id="path46" />
      <path
         d="m 493.863,3460.26 c 57.59,-118.04 138.992,-218.73 242.129,-288.54 25.149,43 58.926,81.35 102.168,109.21 87.375,56.21 182.37,102.76 281.25,141.15 12.23,19.26 23.9,38.95 34.83,58.85 44.74,81.35 76.51,164.32 86.45,233.06 8.31,57.37 1.59,102.07 -26.46,120.61 l -2.39,1.53 -1.44,0.76 c -165.44,90.94 -269.283,220.98 -314.326,369.13 -47.074,154.82 -29.258,328.15 50.117,496.03 20.672,43.69 29.262,74.9 28.457,95.2 -0.207,5.18 -0.75,8.15 -1.531,9.09 -0.793,0.63 -3.406,1.05 -7.5,1.19 -16.844,0.61 -41.062,-6.68 -70.07,-20.83 C 748.645,4715.02 635.672,4609.46 554.453,4485.38 454.809,4333.13 402.602,4152.93 393.824,3972.77 385.039,3792.36 419.73,3612.18 493.863,3460.26"
         style="fill:#ffffff;fill-opacity:1;fill-rule:nonzero;stroke:none"
         id="path48" />
      <path
         d="m 493.863,3460.26 c 57.59,-118.04 138.992,-218.73 242.129,-288.54 25.149,43 58.926,81.35 102.168,109.21 87.375,56.21 182.37,102.76 281.25,141.15 12.23,19.26 23.9,38.95 34.83,58.85 44.74,81.35 76.51,164.32 86.45,233.06 8.31,57.37 1.59,102.07 -26.46,120.61 l -2.39,1.53 -1.44,0.76 c -19.48,10.71 -38.09,21.96 -55.87,33.72 C 1108.95,3578.77 760.031,3280.96 593.754,3672.95 406.875,4113.48 607.285,4557.8 832.645,4752.74 715.961,4683.4 623.668,4591.13 554.453,4485.38 454.809,4333.13 402.602,4152.93 393.824,3972.77 385.039,3792.36 419.73,3612.18 493.863,3460.26"
         style="fill:#ded3ba;fill-opacity:1;fill-rule:nonzero;stroke:none"
         id="path50" />
      <path
         d="m 645.125,1203.81 c -14.473,155.56 -0.273,313.78 50.055,454.15 -11.196,-1.12 -22.66,-1.82 -34.367,-2.1 -45.747,-1.12 -95.059,3.99 -144.172,15.52 -56.168,13.17 -133.243,44.25 -194.106,86.85 -11.715,8.2 -22.883,16.86 -33.305,25.96 C 174.59,1718.46 116.695,1608.86 100.387,1486.96 86.832,1385.72 101.23,1276.14 135.34,1175 c 5.594,9.8 11.848,19.21 18.773,28.24 32.575,42.49 79.145,75.51 140.442,100.81 22.379,9.2 47.996,-1.48 57.191,-23.86 5.988,-14.56 3.555,-30.5 -5.047,-42.38 -54.117,-74.67 -43.582,-131.56 -32.89,-189.28 6.722,-36.3 13.492,-72.882 10.082,-113.975 61.543,14.047 117.297,34.816 167.027,60.961 65.203,34.274 120.164,77.844 164.32,127.614 -4.211,26.76 -7.605,53.7 -10.113,80.68"
         style="fill:#de167d;fill-opacity:1;fill-rule:nonzero;stroke:none"
         id="path52" />
      <path
         d="m 1021.09,1683.59 c 87.7,-68.11 206.18,-110.14 359.57,-104.19 172.96,6.69 389.75,73.98 656.31,231.96 2.14,1.18 3.78,2.09 5.95,3.03 5.48,2.31 11.23,3.41 16.92,3.4 5.7,0.01 11.45,-1.1 16.92,-3.39 2.17,-0.95 3.82,-1.86 5.95,-3.04 266.56,-157.98 483.36,-225.27 656.32,-231.96 153.4,-5.95 271.87,36.08 359.56,104.19 60,46.61 105.99,105.53 139.17,169.73 0.81,1.92 1.76,3.79 2.85,5.59 14.11,28.05 25.8,57.06 35.18,86.45 19.29,60.49 28.83,122.44 29.46,180.89 -78.43,-78.78 -192.54,-67.58 -325.11,-23.41 -60.84,20.29 -123.42,46.89 -188.16,74.41 -243.03,103.31 -518.73,220.49 -697.25,-9.25 -1.18,-1.55 -2.46,-3.02 -3.86,-4.42 -3.24,-3.25 -6.85,-5.87 -10.71,-7.88 l -1.71,-0.85 c -5.48,-2.56 -11.32,-3.92 -17.17,-4.11 h -2.87 c -5.85,0.19 -11.7,1.55 -17.16,4.11 l -1.72,0.85 c -3.86,2.01 -7.47,4.63 -10.66,7.82 -1.45,1.46 -2.73,2.93 -3.91,4.48 -178.52,229.74 -454.22,112.56 -697.25,9.25 -64.74,-27.52 -127.33,-54.12 -188.16,-74.41 -132.57,-44.17 -246.675,-55.37 -325.109,23.41 1.758,-162.14 76.719,-341.71 206.649,-442.66"
         style="fill:#de167d;fill-opacity:1;fill-rule:nonzero;stroke:none"
         id="path54" />
      <path
         d="m 838.148,1754.75 c -97.39,-157.67 -122.64,-361.66 -105.769,-543.04 17.785,-191.35 81.726,-378.351 175.566,-515.835 -0.121,8.879 -0.14,17.832 -0.062,26.875 0.519,57.148 5.277,117.133 16.887,181.285 4.261,23.801 27.031,39.637 50.835,35.375 17.067,-3.062 30.035,-15.629 34.445,-31.281 75.48,-269.238 373.1,-410.723 637.97,-536.633 167.12,-79.449 322.03,-153.105 411.82,-252.625 89.8,99.52 244.71,173.176 411.84,252.625 264.86,125.91 562.48,267.395 637.88,536.66 4.49,15.625 17.46,28.192 34.52,31.254 23.81,4.262 46.58,-11.574 50.84,-35.375 11.62,-64.152 16.37,-124.137 16.88,-181.285 0.08,-9.043 0.07,-17.996 -0.05,-26.867 93.84,137.476 157.77,324.477 175.56,515.827 18.02,193.73 -11.56,390.7 -105.77,543.04 -34.42,-52.38 -77.24,-100.32 -129.02,-140.55 -102.86,-79.88 -240.34,-129.22 -416.58,-122.39 -182.01,7.04 -405.9,74.39 -676.1,231.21 -270.19,-156.82 -494.09,-224.17 -676.09,-231.21 -176.25,-6.83 -313.73,42.51 -416.578,122.39 -51.785,40.23 -94.602,88.17 -129.024,140.55"
         style="fill:#a30054;fill-opacity:1;fill-rule:nonzero;stroke:none"
         id="path56" />
      <path
         d="m 3844.65,1784.19 c -10.42,-9.1 -21.59,-17.76 -33.3,-25.96 -60.85,-42.59 -137.94,-73.68 -194.11,-86.85 -49.11,-11.53 -98.42,-16.64 -144.17,-15.52 -16.93,0.41 -33.37,1.69 -49.17,3.83 50.83,-140.79 65.19,-299.68 50.66,-455.88 -2.07,-22.32 -4.75,-44.61 -8,-66.79 l 2.29,-2.54 c 45.72,-54.5 103.99,-102.11 174.11,-138.964 49.73,-26.145 105.49,-46.914 167.03,-60.961 -3.41,41.093 3.36,77.675 10.08,113.975 10.7,57.72 21.23,114.61 -32.96,189.23 -8.53,11.93 -10.96,27.87 -4.98,42.43 9.2,22.38 34.82,33.06 57.2,23.86 61.3,-25.3 107.87,-58.32 140.45,-100.81 6.92,-9.03 13.17,-18.44 18.76,-28.24 34.11,101.14 48.51,210.72 34.96,311.96 -16.31,121.9 -74.21,231.5 -188.85,297.23"
         style="fill:#de167d;fill-opacity:1;fill-rule:nonzero;stroke:none"
         id="path58" />
      <path
         d="m 3778.79,2046.59 1.09,1.8 c 3.7,6.13 7.24,12.35 10.64,18.66 32.68,60.81 50.66,128.9 50.52,194.52 -0.13,63.75 -17.44,125.13 -55.09,174.66 -21.25,27.95 -49.41,52.48 -85.08,71.88 -15.49,7.67 -25.62,24.15 -24.33,42.46 10.13,136.35 -0.38,259.42 -47.39,351.44 -37.95,74.28 -101.51,129.45 -200.11,156.05 3.63,-14.91 6.45,-29.8 8.49,-44.47 60.68,-7.19 109.13,-44.25 144.59,-97.85 33.65,-50.84 55.48,-117.5 64.4,-186.33 4.61,-35.71 5.83,-71.9 3.46,-106.61 -7.32,-107.44 -37.8,-224.06 -90.03,-319.37 -41.65,-76.03 -97.46,-139.2 -167.06,-175.33 -0.53,-67.83 -11.4,-139.49 -33.63,-209.19 l -0.46,-1.41 c 47.51,-25.92 101.25,-39.68 155.27,-38.57 57.91,1.18 116.29,19.61 167.61,58.63 38.64,29.39 71.45,66.93 97.11,109.03"
         style="fill:#de167d;fill-opacity:1;fill-rule:nonzero;stroke:none"
         id="path60" />
      <path
         d="m 354,2048.39 1.086,-1.8 c 25.672,-42.1 58.473,-79.64 97.121,-109.03 51.32,-39.02 109.691,-57.45 167.609,-58.63 49.465,-1.01 98.692,10.44 143.122,32.28 l -2.508,7.7 c -22.242,69.73 -33.11,141.43 -33.629,209.27 -69.684,36.17 -125.574,99.52 -167.281,175.78 -52.098,95.27 -82.508,211.66 -89.813,318.84 -2.355,34.6 -1.16,70.69 3.422,106.33 8.871,68.86 30.715,135.58 64.359,186.5 35.469,53.68 83.938,90.77 144.668,97.96 1.836,13.22 4.309,26.61 7.438,40.04 -89.949,-28.02 -148.903,-81.25 -184.86,-151.62 -47.011,-92.02 -57.519,-215.09 -47.394,-351.44 1.164,-16.69 -7.324,-33.32 -23.012,-41.75 -36.289,-19.5 -64.883,-44.29 -86.39,-72.59 -37.657,-49.53 -54.969,-110.9 -55.098,-174.66 -0.137,-65.62 17.832,-133.7 50.527,-194.52 3.395,-6.31 6.938,-12.53 10.633,-18.66"
         style="fill:#de167d;fill-opacity:1;fill-rule:nonzero;stroke:none"
         id="path62" />
      <path
         d="m 2059.84,1591.09 c 0,0 -173.36,-111.69 -489.79,-141.93 -316.42,-30.24 -585.159,27.93 -658.452,-90.73 -73.301,-118.67 -37.282,-374.602 -37.282,-374.602 0,0 76.782,134.942 127.974,151.232 51.18,16.3 342.01,-483.955 677.05,-549.107 335.05,-65.156 380.5,74.457 380.5,74.457 0,0 45.46,-139.613 380.5,-74.457 335.05,65.152 625.87,565.407 677.06,549.107 51.19,-16.29 127.97,-151.232 127.97,-151.232 0,0 36.02,255.932 -37.28,374.602 -73.29,118.66 -342.03,60.49 -658.46,90.73 -316.43,30.24 -489.79,141.93 -489.79,141.93"
         style="fill:#de167d;fill-opacity:1;fill-rule:nonzero;stroke:none"
         id="path64" />
      <path
         d="m 96.1367,1376.97 c 93.0543,-6.11 214.0783,-3.63 308.1643,48.91 122.152,68.22 76.652,195.91 35.332,270.27 27.48,-10.97 53.992,-19.37 77.008,-24.77 49.113,-11.53 98.425,-16.64 144.172,-15.52 11.707,0.28 23.171,0.98 34.367,2.1 -50.328,-140.37 -64.528,-298.59 -50.055,-454.15 2.508,-26.98 5.902,-53.92 10.113,-80.68 -44.156,-49.77 -99.117,-93.34 -164.32,-127.614 -49.73,-26.145 -105.484,-46.914 -167.027,-60.961 3.41,41.093 -3.36,77.675 -10.082,113.975 -10.692,57.72 -21.227,114.61 32.89,189.28 8.602,11.88 11.035,27.82 5.047,42.38 -9.195,22.38 -34.812,33.06 -57.191,23.86 -61.297,-25.3 -107.867,-58.32 -140.442,-100.81 -6.925,-9.03 -13.179,-18.44 -18.773,-28.24 -22.027,65.32 -35.8361,134.14 -39.2033,201.97"
         style="fill:#a30054;fill-opacity:1;fill-rule:nonzero;stroke:none"
         id="path66" />
      <path
         d="m 3676.33,1689.31 c -40.17,-75.13 -79.43,-197.26 39.06,-263.43 98.97,-55.27 227.72,-55.15 322.4,-47.9 -3.28,-68.16 -17.11,-137.34 -39.25,-202.98 -5.59,9.8 -11.84,19.21 -18.76,28.24 -32.58,42.49 -79.15,75.51 -140.45,100.81 -22.38,9.2 -48,-1.48 -57.2,-23.86 -5.98,-14.56 -3.55,-30.5 4.98,-42.43 54.19,-74.62 43.66,-131.51 32.96,-189.23 -6.72,-36.3 -13.49,-72.882 -10.08,-113.975 -61.54,14.047 -117.3,34.816 -167.03,60.961 -70.12,36.854 -128.39,84.464 -174.11,138.964 l -2.29,2.54 c 3.25,22.18 5.93,44.47 8,66.79 14.53,156.2 0.17,315.09 -50.66,455.88 15.8,-2.14 32.24,-3.42 49.17,-3.83 45.75,-1.12 95.06,3.99 144.17,15.52 17.96,4.21 38.06,10.26 59.09,17.93"
         style="fill:#a30054;fill-opacity:1;fill-rule:nonzero;stroke:none"
         id="path68" />
      <path
         d="m 3697.36,2510.05 c -58.18,-143.48 -124.31,-287.3 -158.73,-374.51 -51.36,-130.1 100.64,-156.3 184.58,-161.06 -12.94,-13.36 -26.82,-25.73 -41.53,-36.92 -51.32,-39.02 -109.7,-57.45 -167.61,-58.63 -54.02,-1.11 -107.76,12.65 -155.27,38.57 l 0.46,1.41 c 22.23,69.7 33.1,141.36 33.63,209.19 69.6,36.13 125.41,99.3 167.06,175.33 52.23,95.31 82.71,211.93 90.03,319.37 2.37,34.71 1.15,70.9 -3.46,106.61 -8.92,68.83 -30.75,135.49 -64.4,186.33 -35.46,53.6 -83.91,90.66 -144.59,97.85 -2.04,14.67 -4.86,29.56 -8.49,44.47 98.6,-26.6 162.16,-81.77 200.11,-156.05 47.01,-92.02 57.52,-215.09 47.39,-351.44 -1.2,-16.89 7.34,-32.21 20.82,-40.52"
         style="fill:#a30054;fill-opacity:1;fill-rule:nonzero;stroke:none"
         id="path70" />
      <path
         d="m 889.785,2079.51 c 44.172,-121.75 162.855,-351.63 433.665,-372.06 369.94,-27.93 736.39,395.54 736.39,395.54 0,0 366.46,-423.47 736.41,-395.54 270.8,20.43 389.48,250.31 433.65,372.06 27.75,9.15 53,24.29 75.35,46.74 -0.63,-58.45 -10.17,-120.4 -29.46,-180.89 -9.38,-29.39 -21.07,-58.4 -35.18,-86.45 -1.09,-1.8 -2.04,-3.67 -2.85,-5.59 -33.18,-64.2 -79.17,-123.12 -139.17,-169.73 -87.69,-68.11 -206.16,-110.14 -359.56,-104.19 -172.96,6.69 -389.76,73.98 -656.32,231.96 -2.13,1.18 -3.78,2.09 -5.95,3.04 -5.47,2.29 -11.22,3.4 -16.92,3.39 -5.69,0.01 -11.44,-1.09 -16.92,-3.4 -2.17,-0.94 -3.81,-1.85 -5.95,-3.03 -266.56,-157.98 -483.35,-225.27 -656.31,-231.96 -153.39,-5.95 -271.87,36.08 -359.57,104.19 -129.93,100.95 -204.891,280.52 -206.649,442.66 22.344,-22.45 47.598,-37.59 75.344,-46.74"
         style="fill:#a30054;fill-opacity:1;fill-rule:nonzero;stroke:none"
         id="path72" />
      <path
         d="m 409.785,1975.39 c 13.199,-13.71 27.367,-26.38 42.422,-37.83 51.32,-39.02 109.691,-57.45 167.609,-58.63 49.465,-1.01 98.692,10.44 143.122,32.28 l -2.508,7.7 c -22.242,69.73 -33.11,141.43 -33.629,209.27 -69.684,36.17 -125.574,99.52 -167.281,175.78 -52.098,95.27 -82.508,211.66 -89.813,318.84 -2.355,34.6 -1.16,70.69 3.422,106.33 8.871,68.86 30.715,135.58 64.359,186.5 35.469,53.68 83.938,90.77 144.668,97.96 1.836,13.22 4.309,26.61 7.438,40.04 -89.949,-28.02 -148.903,-81.25 -184.86,-151.62 -47.011,-92.02 -57.519,-215.09 -47.394,-351.44 1.164,-16.69 -7.324,-33.32 -23.012,-41.75 -3.183,-1.71 -6.305,-3.46 -9.371,-5.25 57.527,-141.3 122.195,-282.13 156.106,-368.03 48.746,-123.48 -85.696,-153.35 -171.278,-160.15"
         style="fill:#a30054;fill-opacity:1;fill-rule:nonzero;stroke:none"
         id="path74" />
      <path
         d="m 3825.7,1947.42 c -1.14,2.36 -2.44,4.76 -3.92,7.18 -25.17,-32.45 -54.4,-61.83 -87.2,-86.78 -66.95,-50.89 -143.14,-74.94 -218.79,-76.48 -61.81,-1.25 -123.22,12.57 -178.84,39.05 15.44,-22.35 29.52,-45.62 42.31,-69.69 26.34,-10.56 59.31,-16.37 95.87,-17.25 38,-0.94 79.77,3.5 122.19,13.46 47.65,11.18 112.79,37.36 163.87,73.12 27.46,19.23 50.23,40.85 62.27,63.52 9.08,17.1 11.17,35.36 2.24,53.87"
         style="fill:#ffa442;fill-opacity:1;fill-rule:nonzero;stroke:none"
         id="path76" />
      <path
         d="m 737.277,1754.71 c 11.93,22.97 25.036,45.24 39.352,66.68 -50.09,-20.59 -104.164,-31.16 -158.535,-30.05 -75.653,1.54 -151.844,25.59 -218.789,76.48 -32.801,24.95 -62.035,54.33 -87.2,86.78 -1.48,-2.42 -2.781,-4.82 -3.921,-7.18 -8.938,-18.51 -6.844,-36.77 2.23,-53.87 12.051,-22.67 34.816,-44.29 62.277,-63.52 51.079,-35.76 116.223,-61.94 163.875,-73.12 42.414,-9.96 84.192,-14.4 122.188,-13.46 28.918,0.7 55.598,4.49 78.523,11.26"
         style="fill:#ffa442;fill-opacity:1;fill-rule:nonzero;stroke:none"
         id="path78" />
      <path
         d="m 3625.82,3460.26 c -57.59,-118.04 -138.99,-218.73 -242.12,-288.54 -25.15,43 -58.93,81.35 -102.17,109.21 -87.37,56.21 -182.37,102.76 -281.25,141.15 -12.23,19.26 -23.9,38.95 -34.83,58.85 -44.74,81.35 -76.51,164.32 -86.45,233.06 -8.31,57.37 -1.59,102.07 26.46,120.61 l 2.39,1.53 1.44,0.76 c 19.48,10.71 38.09,21.96 55.87,33.72 45.58,-291.84 394.5,-589.65 560.78,-197.66 186.87,440.53 -13.54,884.85 -238.9,1079.79 116.69,-69.34 208.98,-161.61 278.19,-267.36 99.65,-152.25 151.86,-332.45 160.63,-512.61 8.79,-180.41 -25.9,-360.59 -100.04,-512.51"
         style="fill:#ded3ba;fill-opacity:1;fill-rule:nonzero;stroke:none"
         id="path80" />
      <path
         d="m 1251.45,2429.43 c -23.33,-27.88 -64.86,-31.57 -92.75,-8.24 -27.88,23.33 -31.57,64.86 -8.24,92.75 l 0.22,0.27 -1.27,0.42 c -1.29,-0.78 -2.43,-1.18 -1.83,0.62 19.78,59.14 62.47,186.8 198.18,205.43 163.36,22.41 279.42,-185.2 279.76,-185.78 18.21,-31.44 7.48,-71.7 -23.97,-89.91 -31.44,-18.22 -71.7,-7.49 -89.91,23.96 -0.21,0.37 -74.38,131.52 -148.36,121.37 -54.44,-7.46 -79.44,-82.19 -91.01,-116.8 -6.22,-18.61 -10.64,-31.89 -20.82,-44.09 z m -100.77,84.78 c 3.06,3.7 0.72,1.62 -1.27,0.42 l 1.27,-0.42"
         style="fill:#000000;fill-opacity:1;fill-rule:nonzero;stroke:none"
         id="path82" />
      <path
         d="m 2934.45,2513.94 c 23.33,-27.89 19.64,-69.42 -8.24,-92.75 -27.89,-23.33 -69.42,-19.64 -92.75,8.24 -10.17,12.19 -14.61,25.48 -20.82,44.09 -11.58,34.61 -36.58,109.34 -91.01,116.8 -73.98,10.15 -148.15,-121 -148.36,-121.37 -18.21,-31.45 -58.47,-42.18 -89.92,-23.96 -31.44,18.21 -42.17,58.47 -23.96,89.91 0.33,0.58 116.4,208.19 279.75,185.78 135.73,-18.63 178.41,-146.29 198.19,-205.43 0.61,-1.8 -0.54,-1.4 -1.83,-0.62 l -1.27,-0.42 z m 1.05,0.69 c -1.98,1.2 -4.32,3.27 -1.27,-0.42 l 1.27,0.42"
         style="fill:#000000;fill-opacity:1;fill-rule:nonzero;stroke:none"
         id="path84" />
    </g>
  </g>
</svg>
